<svg xmlns="http://www.w3.org/2000/svg" viewBox="0 0 1400 800" preserveAspectRatio="none">
 <defs>
  <linearGradient id="cover" x1="0" y1="0" x2="1" y2="1"><stop stop-color="#65303b"/><stop offset=".48" stop-color="#321828"/><stop offset="1" stop-color="#160d19"/></linearGradient>
  <linearGradient id="leftPage" x1="0" y1="0" x2="1" y2=".3"><stop stop-color="#a9784a"/><stop offset=".035" stop-color="#e4c58f"/><stop offset=".2" stop-color="#f2ddb0"/><stop offset=".77" stop-color="#ead09e"/><stop offset="1" stop-color="#b17d4d"/></linearGradient>
  <linearGradient id="rightPage" x1="1" y1="0" x2="0" y2=".3"><stop stop-color="#a9784a"/><stop offset=".035" stop-color="#e4c58f"/><stop offset=".2" stop-color="#f2ddb0"/><stop offset=".77" stop-color="#ead09e"/><stop offset="1" stop-color="#b17d4d"/></linearGradient>
  <linearGradient id="spine" x1="0" y1="0" x2="1" y2="0"><stop stop-color="#6d4229"/><stop offset=".22" stop-color="#b57b48"/><stop offset=".48" stop-color="#3a211b"/><stop offset=".72" stop-color="#b57b48"/><stop offset="1" stop-color="#654027"/></linearGradient>
  <linearGradient id="gold"><stop stop-color="#f7dda0"/><stop offset=".28" stop-color="#b7792d"/><stop offset=".58" stop-color="#6e3d1d"/><stop offset="1" stop-color="#d2a448"/></linearGradient>
  <filter id="bookShadow" x="-15%" y="-20%" width="130%" height="150%"><feDropShadow dx="0" dy="22" stdDeviation="20" flood-color="#020106" flood-opacity=".76"/></filter>
  <filter id="paper" x="-2%" y="-2%" width="104%" height="104%"><feTurbulence baseFrequency=".55" numOctaves="5" seed="31" type="fractalNoise" result="noise"/><feColorMatrix in="noise" values="1 0 0 0 0 0 1 0 0 0 0 0 1 0 0 0 0 0 .12 0" result="grain"/><feComposite in="grain" in2="SourceAlpha" operator="in" result="clippedGrain"/><feBlend in="SourceGraphic" in2="clippedGrain" mode="multiply"/></filter>
  <filter id="softGlow" x="-100%" y="-100%" width="300%" height="300%"><feGaussianBlur stdDeviation="10" result="blur"/><feMerge><feMergeNode in="blur"/><feMergeNode in="SourceGraphic"/></feMerge></filter>
  <pattern id="pageLines" width="28" height="28" patternUnits="userSpaceOnUse"><path d="M0 27.5h28" stroke="#704b35" stroke-width="1" opacity=".075"/></pattern>
 </defs>
 <g filter="url(#bookShadow)">
  <path d="M72 104Q338 36 682 89q18 3 31 18 13-15 31-18 344-53 610 15l-22 604q-297-51-604 20l-15 4-15-4q-307-71-604-20Z" fill="url(#cover)" stroke="#a76a3c" stroke-width="10"/>
  <path d="M100 84q272-51 586 22l11 20v567q-296-79-600-14L76 665Z" fill="url(#leftPage)" stroke="#c7975b" stroke-width="5" filter="url(#paper)"/>
  <path d="M1324 84q-272-51-586 22l-11 20v567q296-79 600-14l21-14Z" fill="url(#rightPage)" stroke="#c7975b" stroke-width="5" filter="url(#paper)"/>
  <path d="M105 105q270-49 570 18v542q-280-66-567-12Z" fill="url(#pageLines)"/>
  <path d="M1319 105q-270-49-570 18v542q280-66 567-12Z" fill="url(#pageLines)"/>
  <path d="M681 102q20 14 32 38 12-24 32-38l-10 596-22 31-22-31Z" fill="url(#spine)" opacity=".94"/>
  <path d="M687 116q17 17 26 42 9-25 26-42" fill="none" stroke="#e7bd72" stroke-opacity=".6" stroke-width="4"/>
  <path d="M713 158v548" stroke="#241511" stroke-opacity=".55" stroke-width="3"/>
  <g fill="none" stroke="#7b4e31" stroke-width="2" opacity=".28">
   <circle cx="170" cy="167" r="47"/><circle cx="170" cy="167" r="34" stroke-dasharray="3 8"/><path d="m170 120 11 34 35 13-35 12-11 35-11-35-35-12 35-13Z"/>
   <circle cx="1255" cy="167" r="47"/><circle cx="1255" cy="167" r="34" stroke-dasharray="3 8"/><path d="m1255 120 11 34 35 13-35 12-11 35-11-35-35-12 35-13Z"/>
  </g>
  <g fill="none" stroke="#9b693e" stroke-width="3" opacity=".24">
   <path d="M140 617q37-48 82-13 28 22 61-11M1284 617q-37-48-82-13-28 22-61-11"/>
   <path d="M159 592q10-35 44-30-6 28-44 30Zm110 13q7-34 39-35-1 28-39 35ZM1265 592q-10-35-44-30 6 28 44 30Zm-110 13q-7-34-39-35 1 28 39 35Z"/>
  </g>
  <g fill="url(#gold)" opacity=".82">
   <path d="M78 120 116 88l54-5-44 23-23 55Z"/><path d="m1346 120-38-32-54-5 44 23 23 55Z"/>
   <path d="m90 654 39 29 49-7-43-13-27-45Z"/><path d="m1334 654-39 29-49-7 43-13 27-45Z"/>
  </g>
  <circle cx="713" cy="113" r="15" fill="#72e1dc" stroke="#efd991" stroke-width="5" filter="url(#softGlow)"/>
 </g>
</svg>
